<mxfile host="app.diagrams.net" modified="2024-04-16T05:25:29.036Z" agent="Mozilla/5.0 (Windows NT 10.0; Win64; x64) AppleWebKit/537.36 (KHTML, like Gecko) Chrome/123.0.0.0 Safari/537.36" version="24.2.5" etag="7YOJM6MdpzHU6GTs7I8_" type="github">
  <diagram name="Page-1" id="vS62L3CEJA0XUNQdhrgM">
    <mxGraphModel>
      <root>
        <mxCell id="0" />
        <mxCell id="1" parent="0" />
      </root>
    </mxGraphModel>
  </diagram>
</mxfile>
